HIERARCHY
ROOT SimulationBone
{
	OFFSET 0.000000 0.000000 0.000000
	CHANNELS 6 Xposition Yposition Zposition Zrotation Yrotation Xrotation 
	JOINT Hips
	{
		OFFSET 0.000000 0.000000 0.000000
		CHANNELS 6 Xposition Yposition Zposition Zrotation Yrotation Xrotation 
		JOINT LeftUpLeg
		{
			OFFSET 0.103459 1.857823 10.548503
			CHANNELS 3 Zrotation Yrotation Xrotation
			JOINT LeftLeg
			{
				OFFSET 43.499996 -0.000023 0.000000
				CHANNELS 3 Zrotation Yrotation Xrotation
				JOINT LeftFoot
				{
					OFFSET 42.372200 0.000004 0.000000
					CHANNELS 3 Zrotation Yrotation Xrotation
					JOINT LeftToe
					{
						OFFSET 17.300018 0.000006 0.000005
						CHANNELS 3 Zrotation Yrotation Xrotation
						End Site
						{
							OFFSET 0.000000 0.000000 0.000000
						}
					}
				}
			}
		}
		JOINT RightUpLeg
		{
			OFFSET 0.103455 1.857822 -10.548502
			CHANNELS 3 Zrotation Yrotation Xrotation
			JOINT RightLeg
			{
				OFFSET 43.500046 0.000008 0.000013
				CHANNELS 3 Zrotation Yrotation Xrotation
				JOINT RightFoot
				{
					OFFSET 42.372261 -0.000023 0.000013
					CHANNELS 3 Zrotation Yrotation Xrotation
					JOINT RightToe
					{
						OFFSET 17.299988 -0.000007 0.000011
						CHANNELS 3 Zrotation Yrotation Xrotation
						End Site
						{
							OFFSET 0.000000 0.000000 0.000000
						}
					}
				}
			}
		}
		JOINT Spine
		{
			OFFSET 6.901964 -2.603734 -0.000001
			CHANNELS 3 Zrotation Yrotation Xrotation
			JOINT Spine1
			{
				OFFSET 12.588106 0.000013 -0.000000
				CHANNELS 3 Zrotation Yrotation Xrotation
				JOINT Spine2
				{
					OFFSET 12.343193 -0.000017 0.000001
					CHANNELS 3 Zrotation Yrotation Xrotation
					JOINT Neck
					{
						OFFSET 25.832893 -0.000002 -0.000002
						CHANNELS 3 Zrotation Yrotation Xrotation
						JOINT Head
						{
							OFFSET 11.766612 0.000007 0.000002
							CHANNELS 3 Zrotation Yrotation Xrotation
							End Site
							{
								OFFSET 0.000000 0.000000 0.000000
							}
						}
					}
					JOINT LeftShoulder
					{
						OFFSET 19.745903 -1.480356 6.000103
						CHANNELS 3 Zrotation Yrotation Xrotation
						JOINT LeftArm
						{
							OFFSET 11.284128 0.000005 -0.000009
							CHANNELS 3 Zrotation Yrotation Xrotation
							JOINT LeftForeArm
							{
								OFFSET 33.000053 -0.000022 0.000028
								CHANNELS 3 Zrotation Yrotation Xrotation
								JOINT LeftHand
								{
									OFFSET 25.200006 0.000028 0.000005
									CHANNELS 3 Zrotation Yrotation Xrotation
									End Site
									{
										OFFSET 0.000000 0.000000 0.000000
									}
								}
							}
						}
					}
					JOINT RightShoulder
					{
						OFFSET 19.746094 -1.480350 -6.000075
						CHANNELS 3 Zrotation Yrotation Xrotation
						JOINT RightArm
						{
							OFFSET 11.284135 -0.000011 -0.000017
							CHANNELS 3 Zrotation Yrotation Xrotation
							JOINT RightForeArm
							{
								OFFSET 33.000092 0.000037 0.000003
								CHANNELS 3 Zrotation Yrotation Xrotation
								JOINT RightHand
								{
									OFFSET 25.199785 0.000114 0.000427
									CHANNELS 3 Zrotation Yrotation Xrotation
									End Site
									{
										OFFSET 0.000000 0.000000 0.000000
									}
								}
							}
						}
					}
				}
			}
		}
	}
}
MOTION
Frames: 11
Frame Time: 0.016667
-316.109255 0.000000 571.428326 0.000000 134.160097 0.000000 -0.985060 88.729958 1.940212 92.122217 5.854212 -178.777848 -167.505171 -11.867802 162.357421 -35.716154 2.861308 -11.547209 71.636546 0.489200 -24.228925 21.454565 0.003108 0.000017 161.879909 -5.525302 -171.320324 -24.964044 3.693167 6.949166 80.194445 -6.015479 -4.564514 21.454553 -0.003095 -0.000001 8.259374 1.527975 -1.810067 6.459663 3.154257 -3.533580 6.141711 3.132731 -3.552550 18.587376 -4.251180 -18.691009 -21.602836 21.566090 -28.630105 158.141922 -73.767487 20.988528 -17.483128 52.332277 31.465345 -41.711179 -21.798101 1.977128 3.783416 -11.596217 4.974906 -148.588714 75.807069 33.574096 -9.238093 -59.531633 -41.032111 -32.342806 17.364984 -1.428955 3.579522 7.122806 -3.421906 
-316.740065 0.000000 570.252290 0.000000 133.322063 0.000000 -0.834300 88.757831 2.103580 92.351284 6.145750 -178.917003 -168.679002 -12.713911 163.048486 -39.614096 3.319710 -11.532522 69.364228 0.134405 -23.751456 21.454561 0.003108 0.000017 162.894746 -6.445591 -172.073000 -25.029782 3.818007 6.898198 81.033171 -5.996947 -4.834821 21.454553 -0.003102 -0.000003 8.273209 1.593782 -1.779354 6.486484 3.284446 -3.468234 6.168460 3.263313 -3.487995 18.805401 -4.197345 -18.698904 -21.674626 21.489040 -28.623696 158.015638 -73.915604 21.109912 -16.241505 52.604581 32.775638 -42.174167 -21.870152 1.995180 3.177615 -11.095463 6.360418 -148.632903 75.788590 33.529569 -10.018911 -59.438965 -40.506791 -32.918185 17.510229 -1.450329 3.326200 7.803786 -3.774242 
-317.376593 0.000000 569.078672 0.000000 132.468366 0.000000 -0.689956 88.790771 2.235679 92.586023 6.354038 -179.060678 -170.155230 -13.386091 164.033687 -43.837171 3.772713 -11.754038 67.075209 0.008187 -23.148129 21.454558 0.003109 0.000018 163.938638 -7.217603 -172.727274 -25.091924 3.927127 6.747126 81.837673 -5.912035 -5.124257 21.454553 -0.003104 -0.000003 8.298240 1.647026 -1.744123 6.536245 3.389587 -3.394162 6.218154 3.368902 -3.414561 18.953597 -4.210764 -18.713796 -21.736051 21.425385 -28.627301 158.022886 -73.992808 21.098528 -15.146612 52.791394 33.955342 -42.492901 -21.899260 2.006306 2.711591 -10.531855 7.854416 -148.646716 75.838454 33.513850 -10.927237 -59.368760 -39.842053 -33.482413 17.676784 -1.473705 3.097381 8.587649 -4.030568 
-318.019166 0.000000 567.911374 0.000000 131.597718 0.000000 -0.583293 88.822484 2.321252 92.811713 6.521526 -179.201738 -171.883590 -13.916726 165.301139 -48.172870 4.081565 -12.262848 64.688665 0.141519 -22.451509 21.454556 0.003110 0.000019 164.967696 -7.879168 -173.140417 -25.160556 3.934972 6.435569 82.570147 -5.713603 -5.401703 21.454551 -0.003094 -0.000002 8.336516 1.697528 -1.700367 6.612895 3.489121 -3.302723 6.294741 3.468987 -3.323725 19.037176 -4.247317 -18.742762 -21.794788 21.364191 -28.645951 158.070663 -73.933609 21.052794 -14.206096 52.846838 34.903362 -42.643088 -21.867239 2.008544 2.375388 -9.943740 9.312964 -148.677394 75.941107 33.479181 -11.990744 -59.252649 -39.051702 -34.050490 17.812426 -1.495265 2.909901 9.727023 -4.157774 
-318.669542 0.000000 566.753552 0.000000 130.708432 0.000000 -0.513832 88.829247 2.366769 93.050028 6.700051 -179.346320 -173.735629 -14.418700 166.602575 -52.539672 4.261803 -12.169011 63.020563 0.255103 -21.138768 21.454555 0.003109 0.000019 165.952655 -8.476895 -173.313701 -25.328351 3.848106 5.970260 83.269970 -5.399215 -5.639655 21.454550 -0.003084 -0.000000 8.390454 1.750481 -1.644110 6.721325 3.593200 -3.185566 6.403101 3.573769 -3.207202 19.095035 -4.288638 -18.779405 -21.848406 21.316023 -28.676695 158.133890 -73.808536 20.994650 -13.448995 52.841231 35.609539 -42.607327 -21.782199 2.001891 2.171787 -9.258505 10.497671 -148.798784 76.088296 33.350496 -13.151540 -59.086448 -38.212360 -34.616091 17.939613 -1.516157 2.798506 11.243799 -4.179211 
-319.329339 0.000000 565.606411 0.000000 129.798600 0.000000 -0.473223 88.793595 2.382802 93.324554 6.921838 -179.504056 -175.581004 -14.995185 167.726832 -56.851100 4.444598 -10.626700 62.971740 0.010610 -18.853790 21.454553 0.003107 0.000018 166.883374 -9.042277 -173.304083 -25.665965 3.695831 5.381496 83.979646 -4.984876 -5.820212 21.454550 -0.003085 0.000001 8.460364 1.806369 -1.571998 6.862328 3.702504 -3.035902 6.544019 3.683969 -3.058210 19.171370 -4.321666 -18.813767 -21.891151 21.297351 -28.714418 158.199338 -73.709931 20.932827 -12.892844 52.860235 36.104527 -42.368476 -21.654247 1.986689 2.095234 -8.431193 11.232969 -149.087124 76.269780 33.050423 -14.331798 -58.882733 -37.408548 -35.171191 18.094524 -1.539000 2.786725 13.103563 -4.116954 
-319.998978 0.000000 564.469751 0.000000 128.866528 0.000000 -0.451425 88.740509 2.380788 93.625950 7.133720 -179.687592 -177.351531 -15.557805 168.825447 -60.889995 4.568617 -7.859345 64.911173 -0.842552 -16.554540 21.454553 0.003106 0.000017 167.805781 -9.543000 -173.243404 -26.074490 3.513229 4.725088 84.675452 -4.515919 -5.960656 21.454551 -0.003091 0.000001 8.537700 1.851527 -1.483210 7.019149 3.789357 -2.853129 6.700743 3.771922 -2.875971 19.297940 -4.328858 -18.834884 -21.913970 21.326738 -28.753152 158.228679 -73.681331 20.904302 -12.518018 52.937857 36.461328 -41.902974 -21.475368 1.961326 2.098963 -7.635031 11.689359 -149.590006 76.460404 32.531266 -15.450852 -58.650136 -36.702219 -35.721376 18.293714 -1.564805 2.833475 15.278242 -3.942474 
-320.677952 0.000000 563.341997 0.000000 127.910833 0.000000 -0.435942 88.701045 2.369391 93.937604 7.277901 -179.904267 -179.029645 -15.963705 170.077209 -64.458299 4.511663 -4.430592 68.649218 -2.364171 -15.277015 21.454553 0.003110 0.000016 168.777511 -9.942057 -173.276918 -26.425118 3.339792 4.065768 85.321491 -4.045657 -6.084799 21.454552 -0.003094 -0.000001 8.613549 1.873504 -1.379565 7.174065 3.828698 -2.641984 6.855565 3.812542 -2.665063 19.494737 -4.308520 -18.832005 -21.913148 21.416781 -28.785905 158.211716 -73.733849 20.918965 -12.283302 53.082383 36.761362 -41.205858 -21.246281 1.926141 2.146375 -7.048553 12.040828 -150.296141 76.647604 31.805016 -16.450872 -58.407524 -36.120602 -36.274537 18.539625 -1.593852 2.893934 17.709396 -3.645296 
-321.366083 0.000000 562.221231 0.000000 126.930873 0.000000 -0.406556 88.688103 2.351016 94.253277 7.361669 179.865725 179.253247 -16.085493 171.436765 -67.480280 4.391380 -1.305003 72.236729 -3.981768 -14.806255 21.454557 0.003113 0.000016 169.840071 -10.258107 -173.529644 -26.636248 3.217221 3.481922 85.899170 -3.631279 -6.202594 21.454553 -0.003092 -0.000001 8.686559 1.878787 -1.270728 7.323810 3.834020 -2.421530 7.005235 3.819200 -2.444644 19.747170 -4.326742 -18.796764 -21.909585 21.554083 -28.802514 158.276791 -73.797649 20.849211 -12.095105 53.254969 37.080782 -40.351691 -21.021282 1.887994 2.272168 -6.659772 12.135113 -150.990373 76.887072 31.089731 -17.362188 -58.213106 -35.580657 -36.833850 18.797932 -1.624307 2.957529 20.208891 -3.333376 
-322.063817 0.000000 561.106126 0.000000 125.927187 0.000000 -0.345806 88.704854 2.326284 94.567153 7.402773 179.651168 177.376549 -15.848410 172.808686 -69.919370 4.272894 0.669000 73.894610 -5.107644 -14.570345 21.454562 0.003111 0.000017 171.011241 -10.510988 -174.096955 -26.669125 3.184948 3.043435 86.406630 -3.321306 -6.316939 21.454553 -0.003087 0.000001 8.756238 1.875981 -1.167568 7.466817 3.823207 -2.213039 7.148200 3.809644 -2.236103 20.028326 -4.430098 -18.725279 -21.917877 21.704902 -28.787566 158.537297 -73.805197 20.582603 -11.862783 53.412785 37.474256 -39.423047 -20.848070 1.851690 2.505183 -6.403660 11.822478 -151.494673 77.223560 30.565924 -18.221262 -58.105361 -34.997638 -37.406659 19.032874 -1.653821 3.004246 22.581216 -3.124385 
-322.772040 0.000000 559.993273 0.000000 124.903014 0.000000 -0.257610 88.733704 2.294810 94.862037 7.396256 179.490043 175.382456 -15.376504 174.145399 -71.861191 4.084003 1.592120 74.350597 -5.680568 -14.463361 21.454563 0.003106 0.000017 172.227550 -10.683105 -174.971183 -26.606420 3.266773 2.773409 86.891248 -3.125746 -6.413363 21.454553 -0.003086 0.000003 8.817871 1.863182 -1.078051 7.593361 3.792931 -2.032761 7.274728 3.780450 -2.055657 20.296843 -4.518895 -18.626684 -21.902952 21.780182 -28.707499 158.903066 -73.779781 20.210097 -11.560092 53.546355 37.915346 -38.458626 -20.693651 1.815789 2.784504 -6.197244 11.287608 -151.990926 77.580514 30.050299 -18.990613 -58.012387 -34.401606 -38.022692 19.239591 -1.682701 2.983750 24.729520 -3.043709 
